<svg width="579" height="256" viewBox="0 0 579 256" fill="none" xmlns="http://www.w3.org/2000/svg">
<rect x="0.812408" y="0.554626" width="577.639" height="254.748" rx="6" fill="#8492A8"/>
<path d="M279.333 80.7002C279.4 80.7503 279.591 80.7753 279.908 80.7753C280.225 80.7753 280.467 80.6502 280.634 80.4001C280.8 80.1499 280.884 79.7413 280.884 79.1743V78.2737C280.884 77.6733 280.809 77.248 280.659 76.9979C280.525 76.731 280.292 76.5976 279.958 76.5976C279.641 76.5976 279.425 76.6309 279.308 76.6977C279.324 76.781 279.333 76.9228 279.333 77.1229V80.7002ZM292.241 86.4039L296.569 90.8318C296.269 93.4335 295.443 95.4348 294.092 96.8357C292.758 98.2366 290.907 98.937 288.539 98.937C286.754 98.937 285.203 98.5118 283.886 97.6612C282.201 96.5939 280.942 94.8928 280.108 92.5579L279.208 90.1063C278.507 90.0897 277.623 89.9979 276.556 89.8312C276.423 89.9646 276.356 90.148 276.356 90.3815C276.356 90.8318 277.031 91.0986 278.382 91.182L279.808 94.7844V96.9107C277.89 98.2616 275.43 98.937 272.428 98.937C270.277 98.937 268.559 98.4951 267.275 97.6112C265.991 96.7273 265.349 95.4431 265.349 93.7587V69.9933C265.349 69.2595 266.024 68.5507 267.375 67.8669C268.726 67.1665 270.494 66.6078 272.678 66.1909C274.863 65.7572 277.048 65.5404 279.233 65.5404C284.236 65.5404 288.147 66.5661 290.965 68.6174C293.934 70.7688 295.418 73.7958 295.418 77.6983C295.418 79.9331 294.784 81.851 293.517 83.452C292.266 85.0364 290.682 86.1371 288.764 86.7542C288.764 87.2878 289.081 87.5547 289.715 87.5547C290.365 87.5547 291.207 87.1711 292.241 86.4039Z" fill="#333333"/>
<path d="M311.604 99.2623C306.984 99.2623 303.34 97.9781 300.672 95.4098C297.936 92.8248 296.569 89.2891 296.569 84.8029C296.569 80.3 297.978 76.731 300.797 74.096C303.398 71.6444 306.692 70.4186 310.678 70.4186C314.664 70.4186 317.858 71.5193 320.259 73.7207C322.678 75.9055 323.887 78.5989 323.887 81.801C323.887 84.6528 322.894 86.8042 320.91 88.2551C319.075 89.6227 316.574 90.3065 313.405 90.3065C311.037 90.3065 309.035 89.8145 307.401 88.8305C307.268 88.9306 307.201 89.114 307.201 89.3809C307.201 89.8812 307.86 90.3398 309.177 90.7568C310.495 91.207 311.987 91.4322 313.655 91.4322C315.339 91.4322 316.865 91.2237 318.233 90.8068C319.617 90.3732 320.726 89.8645 321.56 89.2808C321.96 89.631 322.277 90.2814 322.511 91.2321C322.761 92.166 322.886 93.0249 322.886 93.8087C322.886 94.5759 322.811 95.2597 322.661 95.8601C321.36 96.9608 320.026 97.7446 318.658 98.2116C316.724 98.912 314.372 99.2623 311.604 99.2623ZM311.278 82.3263C312.112 82.3263 312.529 82.0094 312.529 81.3757C312.529 80.7753 312.087 80.4751 311.203 80.4751C310.32 80.4751 309.811 80.9504 309.677 81.901C310.144 82.1845 310.678 82.3263 311.278 82.3263Z" fill="#333333"/>
<path d="M350.329 86.1037C350.329 87.3045 350.462 88.2718 350.729 89.0056C350.996 89.7394 351.463 90.3148 352.13 90.7317C352.147 90.8151 352.155 90.9736 352.155 91.207V91.6573C352.155 94.0255 351.438 95.8684 350.004 97.1859C348.736 98.3533 347.168 98.937 345.3 98.937C344.033 98.937 342.874 98.6369 341.823 98.0365C340.773 97.4361 340.022 96.5688 339.572 95.4348C339.005 95.4348 338.721 95.71 338.721 96.2603C338.721 96.7273 339.013 97.2526 339.597 97.8363C338.513 98.5701 336.878 98.937 334.694 98.937C331.608 98.937 329.14 98.1032 327.289 96.4354C325.454 94.751 324.537 92.4078 324.537 89.4059C324.537 86.3873 325.513 84.0524 327.464 82.4013C329.248 80.9171 331.558 80.1749 334.393 80.1749C335.361 80.1749 336.295 80.2416 337.195 80.375C337.796 80.4918 338.121 80.5585 338.171 80.5752C338.221 80.4084 338.246 80.2666 338.246 80.1499C338.246 79.7163 337.879 79.4244 337.145 79.2743C336.411 79.1242 335.452 79.0492 334.268 79.0492C331.75 79.0492 329.599 79.5578 327.814 80.5752C326.997 79.1909 326.588 77.4398 326.588 75.3218C326.588 74.121 326.738 73.2287 327.039 72.645C328.239 72.0947 329.765 71.611 331.617 71.1941C333.468 70.7605 335.419 70.5437 337.47 70.5437C341.706 70.5437 344.909 71.4693 347.077 73.3205C349.245 75.1717 350.329 77.7984 350.329 81.2006V86.1037ZM337.345 87.3295C336.645 87.3295 336.295 87.6464 336.295 88.2802C336.295 88.8805 336.703 89.1807 337.52 89.1807C338.087 89.1807 338.504 89.0473 338.771 88.7805C339.038 88.497 339.172 88.0133 339.172 87.3295C339.172 87.3295 338.563 87.3295 337.345 87.3295Z" fill="#333333"/>
<path d="M366.739 99.2623C362.403 99.2623 358.943 97.9281 356.358 95.2597C353.789 92.5746 352.505 88.9806 352.505 84.4777C352.505 79.9748 353.964 76.4141 356.883 73.7958C359.485 71.4609 362.737 70.2935 366.639 70.2935C370.108 70.2935 372.985 71.1524 375.27 72.8702C377.555 74.5713 378.697 76.8894 378.697 79.8247C378.697 81.8593 378.063 83.5187 376.796 84.8029C375.545 86.0704 373.894 86.7041 371.843 86.7041C370.175 86.7041 368.782 86.2622 367.665 85.3783C366.564 84.4777 365.914 83.3103 365.714 81.876C364.98 81.876 364.613 82.1428 364.613 82.6765C364.613 83.894 365.213 85.0114 366.414 86.0287C367.798 87.2295 369.516 87.8299 371.567 87.8299C373.635 87.8299 375.345 87.3879 376.696 86.504C377.53 87.7882 377.947 89.3475 377.947 91.182C377.947 93.3167 377.029 95.1429 375.195 96.6606C373.093 98.395 370.275 99.2623 366.739 99.2623Z" fill="#333333"/>
<path d="M382.575 82.6765H384.126C384.959 82.6765 385.376 82.4013 385.376 81.851C385.376 81.7843 385.36 81.6842 385.326 81.5508H379.723C379.356 80.3834 379.172 79.0825 379.172 77.6483C379.172 76.1973 379.281 75.0216 379.498 74.121C380.448 73.5206 381.757 72.6033 383.425 71.3692C383.892 70.2351 384.501 68.434 385.251 65.9657C385.351 65.6322 385.468 65.307 385.602 64.9901C386.902 64.6565 388.387 64.4898 390.054 64.4898C391.722 64.4898 393.365 64.6649 394.983 65.0151V71.1441H399.31C400.278 72.6117 400.761 74.3378 400.761 76.3224C400.761 77.223 400.636 78.1486 400.386 79.0992C400.136 80.0498 399.777 80.8587 399.31 81.5258H395.733V85.3032C395.733 87.4379 396.625 88.5053 398.41 88.5053H399.486C399.836 89.7728 400.011 90.8735 400.011 91.8074C400.011 94.1089 399.285 95.8767 397.834 97.1109C396.4 98.3283 394.307 98.937 391.555 98.937C388.82 98.937 386.636 98.1782 385.001 96.6606C383.383 95.1262 382.575 92.8748 382.575 89.9062V82.6765Z" fill="#333333"/>
<path d="M278.807 130.738C279.358 130.638 279.633 130.362 279.633 129.912C279.633 129.445 279.483 128.928 279.183 128.361C278.899 127.777 278.474 127.227 277.907 126.71C276.423 125.376 274.413 124.709 271.878 124.709C270.627 124.709 269.46 124.917 268.376 125.334C267.225 124.751 266.308 123.825 265.624 122.557C264.94 121.29 264.598 119.922 264.598 118.455C264.598 114.619 266.199 111.659 269.401 109.574C272.153 107.79 275.547 106.897 279.583 106.897C282.585 106.897 285.112 107.223 287.163 107.873C289.214 108.507 290.89 109.324 292.191 110.325C292.575 111.425 292.766 112.568 292.766 113.752C292.766 114.936 292.608 116.012 292.291 116.979C291.974 117.946 291.516 118.722 290.915 119.305C290.348 118.888 289.323 118.463 287.838 118.03C286.354 117.596 285.003 117.379 283.786 117.379C282.568 117.379 281.751 117.454 281.334 117.604C280.934 117.754 280.734 117.988 280.734 118.305C280.734 118.455 280.759 118.597 280.809 118.73C281.392 118.58 282.143 118.505 283.06 118.505C286.312 118.505 288.964 119.272 291.015 120.806C293.434 122.641 294.643 125.393 294.643 129.062C294.643 132.297 293.334 134.982 290.715 137.117C287.88 139.402 284.069 140.544 279.283 140.544C276.648 140.544 274.363 140.344 272.428 139.944C270.494 139.56 268.609 138.876 266.775 137.892C265.524 136.075 264.898 134.232 264.898 132.364C264.898 130.479 265.541 128.92 266.825 127.686C268.109 126.452 269.685 125.835 271.553 125.835C273.437 125.835 274.972 126.218 276.156 126.985C277.357 127.752 278.24 129.003 278.807 130.738Z" fill="#333333"/>
<path d="M308.627 117.329V127.235C308.627 129.72 309.227 131.338 310.428 132.089C310.445 132.172 310.453 132.33 310.453 132.564V133.014C310.453 135.466 309.786 137.309 308.452 138.543C307.218 139.71 305.566 140.294 303.498 140.294C301.447 140.294 299.754 139.71 298.42 138.543C296.736 137.058 295.894 134.89 295.894 132.039V115.778C296.194 115.561 296.519 115.386 296.869 115.253C297.219 115.119 297.586 114.953 297.97 114.752C297.253 114.385 296.602 113.752 296.019 112.851C295.435 111.934 295.143 110.867 295.143 109.649C295.143 107.548 295.835 105.83 297.219 104.496C298.604 103.162 300.296 102.494 302.298 102.494C304.316 102.494 306 103.178 307.351 104.546C308.718 105.897 309.402 107.598 309.402 109.649C309.402 111.3 308.885 112.751 307.851 114.002C306.817 115.236 305.558 116.012 304.074 116.328C304.074 116.962 304.316 117.279 304.799 117.279C305.65 117.279 306.517 116.945 307.401 116.278C308.068 116.795 308.477 117.146 308.627 117.329Z" fill="#333333"/>
<path d="M352.08 127.461C352.08 128.678 352.213 129.67 352.48 130.438C352.747 131.205 353.214 131.797 353.881 132.214C353.898 132.297 353.906 132.439 353.906 132.639V133.014C353.906 135.299 353.239 137.084 351.905 138.368C350.571 139.652 348.844 140.294 346.726 140.294C344.625 140.294 342.932 139.719 341.648 138.568C340.13 137.234 339.372 135.191 339.372 132.439V124.534C339.372 123.416 339.005 122.858 338.271 122.858C337.987 122.858 337.762 122.924 337.595 123.058L338.046 126.785V132.439C338.046 134.707 338.421 136.425 339.172 137.592C338.371 138.443 337.37 139.11 336.17 139.593C334.985 140.06 333.776 140.294 332.542 140.294C330.541 140.294 328.99 139.81 327.889 138.843C326.555 137.676 325.888 135.833 325.888 133.314V124.534C325.888 123.416 325.521 122.858 324.787 122.858C324.504 122.858 324.279 122.924 324.112 123.058L324.562 126.785V133.414C324.562 135.282 324.812 136.725 325.313 137.742C323.678 139.427 321.385 140.269 318.433 140.269C316.682 140.269 315.206 139.827 314.005 138.943C312.621 137.926 311.929 136.558 311.929 134.84V122.883C310.945 121.498 310.453 119.797 310.453 117.779C310.453 115.745 310.945 113.985 311.929 112.501H317.958C319.142 112.501 320.151 112.943 320.985 113.827C320.251 114.511 319.884 115.078 319.884 115.528C319.884 116.045 320.176 116.303 320.76 116.303C321.493 115.036 322.502 114.027 323.787 113.276C325.288 112.426 327.047 112.001 329.065 112.001C330.599 112.001 331.942 112.326 333.093 112.976C334.26 113.627 335.127 114.377 335.694 115.228C336.478 114.16 337.495 113.36 338.746 112.826C340.014 112.276 341.331 112.001 342.699 112.001C345.717 112.001 348.061 112.935 349.728 114.802C351.363 116.67 352.18 119.23 352.18 122.482L352.08 127.461Z" fill="#333333"/>
<path d="M368.065 126.335V129.687C368.182 129.804 368.374 129.862 368.641 129.862C368.907 129.862 369.099 129.77 369.216 129.587C369.333 129.404 369.391 129.087 369.391 128.636V126.085C369.391 124.484 369.324 123.425 369.191 122.908C369.058 122.374 368.807 122.107 368.44 122.107C368.207 122.107 368.007 122.191 367.84 122.357C367.99 124.008 368.065 125.334 368.065 126.335ZM360.085 115.553C360.085 116.053 360.377 116.303 360.961 116.303C361.961 114.736 363.137 113.577 364.488 112.826C365.839 112.059 367.465 111.675 369.366 111.675C371.267 111.675 373.002 111.976 374.569 112.576C376.721 113.427 378.422 114.794 379.673 116.679C381.24 119.064 382.024 122.191 382.024 126.06C382.024 130.413 380.857 133.798 378.522 136.216C376.204 138.618 372.985 139.819 368.866 139.819C366.564 139.819 364.771 139.535 363.487 138.968C363.37 139.035 363.312 139.177 363.312 139.393C363.312 139.894 363.696 140.252 364.463 140.469C365.247 140.686 366.589 140.844 368.49 140.944V147.599C366.773 148.366 364.888 148.749 362.837 148.749C360.419 148.749 358.592 148.307 357.358 147.424C355.957 146.473 355.257 145.014 355.257 143.046V122.908C354.273 121.523 353.781 119.806 353.781 117.754C353.781 116.92 353.914 116.012 354.181 115.028C354.448 114.044 354.807 113.201 355.257 112.501H358.809C360.26 112.501 361.369 112.701 362.136 113.101C360.769 114.119 360.085 114.936 360.085 115.553Z" fill="#333333"/>
<path d="M396.183 109.649V127.235C396.183 129.72 396.784 131.338 397.985 132.089C398.001 132.172 398.01 132.33 398.01 132.564V133.014C398.01 135.399 397.401 137.209 396.183 138.443C394.983 139.677 393.273 140.294 391.055 140.294C388.837 140.294 387.077 139.677 385.777 138.443C384.226 136.975 383.45 134.757 383.45 131.788V105.797C385.201 104.729 387.203 104.196 389.454 104.196C391.722 104.196 393.407 104.679 394.507 105.647C395.625 106.597 396.183 107.931 396.183 109.649Z" fill="#333333"/>
<path d="M413.37 140.619C408.75 140.619 405.106 139.335 402.437 136.767C399.702 134.182 398.335 130.646 398.335 126.16C398.335 121.657 399.744 118.088 402.563 115.453C405.164 113.001 408.458 111.775 412.444 111.775C416.43 111.775 419.624 112.876 422.025 115.078C424.443 117.262 425.652 119.956 425.652 123.158C425.652 126.01 424.66 128.161 422.676 129.612C420.841 130.98 418.339 131.663 415.171 131.663C412.802 131.663 410.801 131.171 409.167 130.187C409.033 130.287 408.967 130.471 408.967 130.738C408.967 131.238 409.625 131.697 410.943 132.114C412.26 132.564 413.753 132.789 415.421 132.789C417.105 132.789 418.631 132.581 419.999 132.164C421.383 131.73 422.492 131.221 423.326 130.638C423.726 130.988 424.043 131.638 424.277 132.589C424.527 133.523 424.652 134.382 424.652 135.166C424.652 135.933 424.577 136.617 424.427 137.217C423.126 138.318 421.792 139.101 420.424 139.568C418.489 140.269 416.138 140.619 413.37 140.619ZM413.044 123.683C413.878 123.683 414.295 123.366 414.295 122.733C414.295 122.132 413.853 121.832 412.969 121.832C412.085 121.832 411.577 122.307 411.443 123.258C411.91 123.541 412.444 123.683 413.044 123.683Z" fill="#333333"/>
<path d="M280.484 163.939C280.484 162.272 280.408 161.129 280.258 160.512C280.108 159.878 279.833 159.562 279.433 159.562C279.183 159.562 278.958 159.645 278.757 159.812C278.791 160.112 278.841 160.512 278.908 161.012C278.974 161.513 279.008 162.58 279.008 164.215V165.841C279.008 166.975 278.983 167.8 278.933 168.317C278.883 168.834 278.841 169.276 278.807 169.643C278.791 169.843 278.774 170.043 278.757 170.243C278.958 170.41 279.183 170.494 279.433 170.494C279.833 170.494 280.108 170.185 280.258 169.568C280.408 168.934 280.484 167.783 280.484 166.116V163.939ZM271.153 181.226C269.301 181.226 267.867 180.734 266.85 179.75C265.849 178.766 265.349 177.281 265.349 175.297V152.782C265.349 151.515 266.616 150.447 269.151 149.58C271.703 148.696 274.546 148.254 277.682 148.254C283.202 148.254 287.513 149.588 290.615 152.257C293.951 155.125 295.618 159.403 295.618 165.09C295.618 170.21 294.001 174.179 290.765 176.998C287.546 179.816 283.119 181.226 277.482 181.226H271.153Z" fill="#333333"/>
<path d="M309.828 158.686V168.592C309.828 171.077 310.428 172.695 311.629 173.445C311.645 173.529 311.654 173.687 311.654 173.921V174.371C311.654 176.823 310.987 178.666 309.652 179.9C308.418 181.067 306.767 181.651 304.699 181.651C302.648 181.651 300.955 181.067 299.621 179.9C297.936 178.415 297.094 176.247 297.094 173.395V157.135C297.394 156.918 297.72 156.743 298.07 156.61C298.42 156.476 298.787 156.309 299.171 156.109C298.454 155.742 297.803 155.109 297.219 154.208C296.636 153.291 296.344 152.223 296.344 151.006C296.344 148.905 297.036 147.187 298.42 145.853C299.804 144.518 301.497 143.851 303.498 143.851C305.516 143.851 307.201 144.535 308.552 145.903C309.919 147.254 310.603 148.955 310.603 151.006C310.603 152.657 310.086 154.108 309.052 155.359C308.018 156.593 306.759 157.368 305.275 157.685C305.275 158.319 305.516 158.636 306 158.636C306.851 158.636 307.718 158.302 308.602 157.635C309.269 158.152 309.677 158.502 309.828 158.686Z" fill="#333333"/>
<path d="M338.071 168.817C338.071 170.018 338.204 170.986 338.471 171.719C338.738 172.453 339.205 173.029 339.872 173.445C339.889 173.529 339.897 173.687 339.897 173.921V174.371C339.897 176.739 339.18 178.582 337.746 179.9C336.478 181.067 334.91 181.651 333.043 181.651C331.775 181.651 330.616 181.351 329.565 180.75C328.515 180.15 327.764 179.283 327.314 178.149C326.747 178.149 326.463 178.424 326.463 178.974C326.463 179.441 326.755 179.966 327.339 180.55C326.255 181.284 324.62 181.651 322.436 181.651C319.35 181.651 316.882 180.817 315.031 179.149C313.196 177.465 312.279 175.122 312.279 172.12C312.279 169.101 313.255 166.766 315.206 165.115C316.99 163.631 319.3 162.889 322.135 162.889C323.103 162.889 324.037 162.955 324.937 163.089C325.538 163.206 325.863 163.272 325.913 163.289C325.963 163.122 325.988 162.98 325.988 162.864C325.988 162.43 325.621 162.138 324.887 161.988C324.153 161.838 323.195 161.763 322.01 161.763C319.492 161.763 317.341 162.272 315.556 163.289C314.739 161.905 314.33 160.154 314.33 158.036C314.33 156.835 314.481 155.942 314.781 155.359C315.982 154.808 317.507 154.325 319.359 153.908C321.21 153.474 323.161 153.257 325.212 153.257C329.449 153.257 332.651 154.183 334.819 156.034C336.987 157.885 338.071 160.512 338.071 163.914V168.817ZM325.087 170.043C324.387 170.043 324.037 170.36 324.037 170.994C324.037 171.594 324.445 171.894 325.263 171.894C325.83 171.894 326.246 171.761 326.513 171.494C326.78 171.211 326.914 170.727 326.914 170.043C326.914 170.043 326.305 170.043 325.087 170.043Z" fill="#333333"/>
<path d="M353.656 151.006V168.592C353.656 171.077 354.256 172.695 355.457 173.445C355.474 173.529 355.482 173.687 355.482 173.921V174.371C355.482 176.756 354.873 178.565 353.656 179.8C352.455 181.034 350.746 181.651 348.528 181.651C346.309 181.651 344.55 181.034 343.249 179.8C341.698 178.332 340.923 176.114 340.923 173.145V147.153C342.674 146.086 344.675 145.552 346.927 145.552C349.195 145.552 350.879 146.036 351.98 147.003C353.097 147.954 353.656 149.288 353.656 151.006Z" fill="#333333"/>
<path d="M369.266 167.266V171.644C369.383 171.761 369.575 171.819 369.841 171.819C370.108 171.819 370.3 171.728 370.417 171.544C370.533 171.361 370.592 171.044 370.592 170.594V167.016C370.592 165.415 370.525 164.356 370.392 163.839C370.258 163.306 370.008 163.039 369.641 163.039C369.408 163.039 369.208 163.122 369.041 163.289C369.191 164.94 369.266 166.266 369.266 167.266ZM359.91 178.349C357.175 175.714 355.807 172.145 355.807 167.642C355.807 163.122 357.091 159.562 359.66 156.96C362.245 154.341 365.63 153.032 369.816 153.032C374.002 153.032 377.388 154.391 379.973 157.11C382.541 159.828 383.825 163.372 383.825 167.742C383.825 172.095 382.583 175.555 380.098 178.124C377.63 180.692 374.269 181.976 370.016 181.976C365.764 181.976 362.395 180.767 359.91 178.349Z" fill="#333333"/>
<path d="M399.26 163.264C399.26 162.664 399.035 162.363 398.585 162.363C398.168 162.363 397.96 162.613 397.96 163.114V165.69C398.093 165.807 398.293 165.866 398.56 165.866C398.827 165.866 399.01 165.766 399.11 165.565C399.21 165.365 399.26 164.998 399.26 164.465V163.264ZM400.186 173.395C399.119 173.395 398.21 173.32 397.459 173.17C397.409 173.32 397.384 173.462 397.384 173.596C397.384 173.962 397.643 174.213 398.16 174.346C398.693 174.463 399.369 174.521 400.186 174.521C402.788 174.521 405.006 174.138 406.84 173.37C408.641 173.837 410.042 174.855 411.043 176.422C411.86 177.707 412.269 179.216 412.269 180.95C412.269 184.036 410.96 186.437 408.341 188.155C405.723 189.873 402.346 190.732 398.21 190.732C394.09 190.732 390.905 189.998 388.654 188.53C386.569 187.196 385.526 185.462 385.526 183.327C385.526 182.51 385.718 181.726 386.102 180.975C386.485 180.208 386.927 179.683 387.428 179.399C388.262 180.1 389.487 180.667 391.105 181.1C392.739 181.534 394.416 181.751 396.133 181.751C397.851 181.751 398.952 181.684 399.435 181.551C399.936 181.417 400.186 181.184 400.186 180.85C400.186 180.684 400.136 180.517 400.036 180.35C399.202 180.533 398.16 180.625 396.909 180.625C393.69 180.625 391.163 180.166 389.329 179.249C387.094 178.149 385.977 176.489 385.977 174.271C385.977 173.404 386.152 172.603 386.502 171.869C386.852 171.119 387.369 170.56 388.053 170.193C387.136 169.626 386.352 168.767 385.702 167.617C385.068 166.466 384.751 165.048 384.751 163.364C384.751 160.162 385.952 157.635 388.353 155.784C390.755 153.933 393.874 153.007 397.709 153.007C399.561 153.007 401.345 153.316 403.063 153.933V152.182C404.047 151.798 405.348 151.606 406.965 151.606C408.6 151.606 409.842 151.882 410.693 152.432C411.727 153.099 412.244 154.275 412.244 155.959C412.244 156.893 412.144 157.644 411.944 158.211C411.76 158.778 411.485 159.37 411.118 159.987C411.552 161.087 411.768 162.455 411.768 164.089C411.768 167.041 410.718 169.334 408.616 170.969C406.532 172.587 403.722 173.395 400.186 173.395Z" fill="#333333"/>
<path d="M426.778 161.588C426.345 161.721 426.128 161.98 426.128 162.363V162.488C426.128 162.572 426.136 162.622 426.153 162.638C426.336 162.622 426.578 162.613 426.878 162.613H427.479C429.38 162.613 431.156 162.905 432.807 163.489C434.475 164.056 435.834 164.973 436.885 166.241C438.052 167.675 438.636 169.485 438.636 171.669C438.636 175.072 437.46 177.64 435.109 179.374C432.757 181.109 429.613 181.976 425.677 181.976C421.742 181.976 418.656 181.326 416.421 180.025C414.203 178.724 413.094 176.814 413.094 174.296C413.094 173.362 413.294 172.512 413.695 171.744C414.095 170.961 414.545 170.41 415.046 170.093C415.963 170.86 417.289 171.528 419.023 172.095C420.774 172.645 422.625 172.92 424.577 172.92C425.361 172.92 425.753 172.703 425.753 172.27C425.753 172.07 425.727 171.903 425.677 171.769C425.561 171.786 425.419 171.794 425.252 171.794H424.977C421.441 171.794 418.615 171.094 416.497 169.693C414.095 168.109 412.894 165.874 412.894 162.989C412.894 160.104 413.97 157.769 416.121 155.984C418.506 154.016 421.783 153.032 425.953 153.032C428.004 153.032 429.914 153.249 431.681 153.683C433.466 154.116 434.992 154.692 436.259 155.409C436.576 156.093 436.735 157.102 436.735 158.436C436.735 160.47 436.176 162.03 435.059 163.114C434.208 162.647 433.166 162.263 431.932 161.963C430.714 161.646 429.613 161.488 428.629 161.488C427.645 161.488 427.028 161.521 426.778 161.588Z" fill="#333333"/>
<g filter="url(#filter0_d_1_78)">
<rect x="143.717" y="77.5884" width="99.333" height="64.813" rx="6" transform="rotate(-6.93786 143.717 77.5884)" fill="white"/>
<rect x="147.714" y="84.1988" width="28.5318" height="5.98816" rx="2.99408" transform="rotate(-6.93786 147.714 84.1988)" fill="#D9D9D9"/>
<rect x="148.863" y="93.6397" width="92.2881" height="26.0661" rx="3" transform="rotate(-6.93786 148.863 93.6397)" fill="#D9D9D9"/>
<rect x="176.494" y="128.246" width="19.7257" height="4.93142" rx="2.46571" transform="rotate(-6.93786 176.494 128.246)" fill="#579FC8"/>
<rect x="199.572" y="125.437" width="19.7257" height="4.93142" rx="2.46571" transform="rotate(-6.93786 199.572 125.437)" fill="#D9D9D9"/>
<line x1="164.649" y1="124.216" x2="233.183" y2="115.876" stroke="#DDDDDD"/>
</g>
<g filter="url(#filter1_d_1_78)">
<rect x="152.92" y="84.8101" width="99.333" height="64.813" rx="6" transform="rotate(11.8073 152.92 84.8101)" fill="white"/>
<rect x="154.581" y="92.3546" width="28.5318" height="5.98816" rx="2.99408" transform="rotate(11.8073 154.581 92.3546)" fill="#D9D9D9"/>
<rect x="152.635" y="101.664" width="92.2881" height="26.0661" rx="3" transform="rotate(11.8073 152.635 101.664)" fill="#D9D9D9"/>
<rect x="167.679" y="143.314" width="19.7257" height="4.93142" rx="2.46571" transform="rotate(11.8073 167.679 143.314)" fill="#579FC8"/>
<rect x="190.436" y="148.071" width="19.7257" height="4.93142" rx="2.46571" transform="rotate(11.8073 190.436 148.071)" fill="#D9D9D9"/>
<line x1="157.757" y1="135.691" x2="225.337" y2="149.818" stroke="#DDDDDD"/>
</g>
<g filter="url(#filter2_d_1_78)">
<rect x="143.213" y="125.632" width="99.333" height="64.813" rx="6" transform="rotate(-6.53312 143.213 125.632)" fill="white"/>
<rect x="147.164" y="132.271" width="28.5318" height="5.98816" rx="2.99408" transform="rotate(-6.53312 147.164 132.271)" fill="#D9D9D9"/>
<rect x="148.246" y="141.72" width="92.2881" height="26.0661" rx="3" transform="rotate(-6.53312 148.246 141.72)" fill="#D9D9D9"/>
<rect x="175.631" y="176.52" width="19.7257" height="4.93143" rx="2.46571" transform="rotate(-6.53312 175.631 176.52)" fill="#579FC8"/>
<rect x="198.729" y="173.875" width="19.7257" height="4.93143" rx="2.46571" transform="rotate(-6.53312 198.729 173.875)" fill="#D9D9D9"/>
<line x1="163.815" y1="172.406" x2="232.406" y2="164.551" stroke="#DDDDDD"/>
</g>
<defs>
<filter id="filter0_d_1_78" x="137.397" y="57.2699" width="119.074" height="88.9767" filterUnits="userSpaceOnUse" color-interpolation-filters="sRGB">
<feFlood flood-opacity="0" result="BackgroundImageFix"/>
<feColorMatrix in="SourceAlpha" type="matrix" values="0 0 0 0 0 0 0 0 0 0 0 0 0 0 0 0 0 0 127 0" result="hardAlpha"/>
<feOffset dy="-2"/>
<feGaussianBlur stdDeviation="3.5"/>
<feComposite in2="hardAlpha" operator="out"/>
<feColorMatrix type="matrix" values="0 0 0 0 0 0 0 0 0 0 0 0 0 0 0 0 0 0 0.05 0"/>
<feBlend mode="normal" in2="BackgroundImageFix" result="effect1_dropShadow_1_78"/>
<feBlend mode="normal" in="SourceGraphic" in2="effect1_dropShadow_1_78" result="shape"/>
</filter>
<filter id="filter1_d_1_78" x="133.757" y="76.9097" width="122.294" height="95.5682" filterUnits="userSpaceOnUse" color-interpolation-filters="sRGB">
<feFlood flood-opacity="0" result="BackgroundImageFix"/>
<feColorMatrix in="SourceAlpha" type="matrix" values="0 0 0 0 0 0 0 0 0 0 0 0 0 0 0 0 0 0 127 0" result="hardAlpha"/>
<feOffset dy="-2"/>
<feGaussianBlur stdDeviation="3.5"/>
<feComposite in2="hardAlpha" operator="out"/>
<feColorMatrix type="matrix" values="0 0 0 0 0 0 0 0 0 0 0 0 0 0 0 0 0 0 0.05 0"/>
<feBlend mode="normal" in2="BackgroundImageFix" result="effect1_dropShadow_1_78"/>
<feBlend mode="normal" in="SourceGraphic" in2="effect1_dropShadow_1_78" result="shape"/>
</filter>
<filter id="filter2_d_1_78" x="136.856" y="105.974" width="118.776" height="88.4077" filterUnits="userSpaceOnUse" color-interpolation-filters="sRGB">
<feFlood flood-opacity="0" result="BackgroundImageFix"/>
<feColorMatrix in="SourceAlpha" type="matrix" values="0 0 0 0 0 0 0 0 0 0 0 0 0 0 0 0 0 0 127 0" result="hardAlpha"/>
<feOffset dy="-2"/>
<feGaussianBlur stdDeviation="3.5"/>
<feComposite in2="hardAlpha" operator="out"/>
<feColorMatrix type="matrix" values="0 0 0 0 0 0 0 0 0 0 0 0 0 0 0 0 0 0 0.05 0"/>
<feBlend mode="normal" in2="BackgroundImageFix" result="effect1_dropShadow_1_78"/>
<feBlend mode="normal" in="SourceGraphic" in2="effect1_dropShadow_1_78" result="shape"/>
</filter>
</defs>
</svg>
