<svg width="1317" height="714" viewBox="0 0 1317 714" fill="none" xmlns="http://www.w3.org/2000/svg">
<rect x="116.399" y="70.3761" width="1200" height="577.516" rx="6" fill="#272C34"/>
<g filter="url(#filter0_d_13_2)">
<path d="M755.441 234.837C755.618 234.969 756.126 235.036 756.965 235.036C757.805 235.036 758.446 234.704 758.888 234.041C759.33 233.379 759.551 232.296 759.551 230.793V228.407C759.551 226.816 759.352 225.689 758.954 225.027C758.6 224.32 757.982 223.966 757.098 223.966C756.258 223.966 755.684 224.054 755.375 224.231C755.419 224.452 755.441 224.828 755.441 225.358V234.837ZM789.644 249.95L801.111 261.682C800.316 268.576 798.128 273.878 794.549 277.59C791.014 281.302 786.109 283.158 779.834 283.158C775.105 283.158 770.996 282.031 767.505 279.778C763.042 276.95 759.705 272.442 757.496 266.256L755.109 259.76C753.253 259.716 750.911 259.473 748.083 259.031C747.73 259.384 747.553 259.87 747.553 260.489C747.553 261.682 749.343 262.389 752.922 262.61L756.7 272.155V277.789C751.618 281.369 745.1 283.158 737.146 283.158C731.446 283.158 726.894 281.987 723.492 279.645C720.089 277.303 718.388 273.901 718.388 269.437V206.467C718.388 204.523 720.177 202.644 723.757 200.833C727.336 198.977 732.02 197.496 737.809 196.392C743.598 195.243 749.387 194.668 755.176 194.668C768.433 194.668 778.795 197.386 786.263 202.821C794.129 208.522 798.062 216.542 798.062 226.883C798.062 232.804 796.383 237.886 793.024 242.128C789.71 246.326 785.512 249.243 780.43 250.878C780.43 252.292 781.27 252.999 782.949 252.999C784.672 252.999 786.904 251.982 789.644 249.95Z" fill="#FF5775"/>
<path d="M840.948 284.02C828.708 284.02 819.052 280.617 811.982 273.812C804.735 266.963 801.111 257.595 801.111 245.707C801.111 233.776 804.845 224.32 812.313 217.338C819.207 210.842 827.934 207.594 838.496 207.594C849.057 207.594 857.519 210.51 863.883 216.343C870.29 222.132 873.494 229.269 873.494 237.753C873.494 245.31 870.865 251.01 865.606 254.855C860.745 258.478 854.117 260.29 845.721 260.29C839.446 260.29 834.143 258.987 829.812 256.379C829.459 256.644 829.282 257.131 829.282 257.838C829.282 259.163 831.028 260.378 834.519 261.483C838.01 262.676 841.965 263.273 846.383 263.273C850.847 263.273 854.89 262.721 858.514 261.616C862.181 260.467 865.12 259.119 867.329 257.572C868.39 258.5 869.23 260.224 869.848 262.743C870.511 265.217 870.843 267.493 870.843 269.57C870.843 271.603 870.644 273.414 870.246 275.005C866.799 277.922 863.264 279.999 859.64 281.236C854.514 283.092 848.284 284.02 840.948 284.02ZM840.086 239.145C842.296 239.145 843.401 238.306 843.401 236.626C843.401 235.036 842.23 234.24 839.888 234.24C837.546 234.24 836.198 235.5 835.844 238.018C837.082 238.77 838.496 239.145 840.086 239.145Z" fill="#FF5775"/>
<path d="M943.557 249.154C943.557 252.336 943.91 254.899 944.617 256.843C945.324 258.788 946.562 260.312 948.329 261.417C948.374 261.638 948.396 262.058 948.396 262.676V263.869C948.396 270.144 946.496 275.027 942.695 278.518C939.337 281.612 935.183 283.158 930.234 283.158C926.875 283.158 923.804 282.363 921.02 280.772C918.236 279.181 916.248 276.883 915.054 273.878C913.552 273.878 912.801 274.608 912.801 276.066C912.801 277.303 913.574 278.695 915.121 280.242C912.248 282.186 907.918 283.158 902.129 283.158C893.954 283.158 887.414 280.949 882.509 276.53C877.648 272.067 875.217 265.858 875.217 257.904C875.217 249.905 877.802 243.719 882.973 239.344C887.701 235.411 893.821 233.445 901.334 233.445C903.897 233.445 906.371 233.622 908.757 233.975C910.348 234.284 911.21 234.461 911.343 234.505C911.475 234.063 911.541 233.688 911.541 233.379C911.541 232.23 910.569 231.456 908.625 231.059C906.68 230.661 904.14 230.462 901.002 230.462C894.329 230.462 888.629 231.81 883.901 234.505C881.735 230.838 880.653 226.198 880.653 220.586C880.653 217.404 881.05 215.04 881.846 213.493C885.027 212.035 889.071 210.753 893.976 209.649C898.881 208.5 904.051 207.925 909.487 207.925C920.711 207.925 929.195 210.378 934.94 215.283C940.685 220.188 943.557 227.148 943.557 236.162V249.154ZM909.155 252.402C907.299 252.402 906.371 253.242 906.371 254.921C906.371 256.512 907.454 257.307 909.619 257.307C911.122 257.307 912.226 256.954 912.933 256.247C913.64 255.496 913.994 254.214 913.994 252.402C913.994 252.402 912.381 252.402 909.155 252.402Z" fill="#FF5775"/>
<path d="M987.04 284.02C975.55 284.02 966.381 280.485 959.532 273.414C952.726 266.3 949.324 256.777 949.324 244.846C949.324 232.915 953.19 223.48 960.923 216.542C967.817 210.356 976.434 207.262 986.775 207.262C995.966 207.262 1003.59 209.538 1009.64 214.09C1015.7 218.597 1018.72 224.739 1018.72 232.517C1018.72 237.908 1017.04 242.305 1013.69 245.707C1010.37 249.066 1006 250.745 1000.56 250.745C996.143 250.745 992.453 249.574 989.492 247.232C986.576 244.846 984.852 241.752 984.322 237.952C982.378 237.952 981.405 238.659 981.405 240.073C981.405 243.299 982.996 246.26 986.178 248.955C989.846 252.137 994.397 253.728 999.833 253.728C1005.31 253.728 1009.84 252.557 1013.42 250.215C1015.63 253.617 1016.74 257.749 1016.74 262.61C1016.74 268.266 1014.3 273.105 1009.44 277.126C1003.88 281.722 996.408 284.02 987.04 284.02Z" fill="#FF5775"/>
<path d="M1029 240.073H1033.11C1035.32 240.073 1036.42 239.344 1036.42 237.886C1036.42 237.709 1036.38 237.444 1036.29 237.09H1021.44C1020.47 233.997 1019.98 230.55 1019.98 226.75C1019.98 222.906 1020.27 219.79 1020.84 217.404C1023.36 215.813 1026.83 213.383 1031.25 210.113C1032.49 207.108 1034.1 202.335 1036.09 195.795C1036.36 194.911 1036.66 194.05 1037.02 193.21C1040.47 192.326 1044.4 191.884 1048.82 191.884C1053.24 191.884 1057.59 192.348 1061.88 193.276V209.516H1073.34C1075.91 213.405 1077.19 217.978 1077.19 223.237C1077.19 225.623 1076.86 228.076 1076.19 230.595C1075.53 233.113 1074.58 235.257 1073.34 237.024H1063.86V247.033C1063.86 252.689 1066.23 255.518 1070.96 255.518H1073.81C1074.73 258.876 1075.2 261.793 1075.2 264.267C1075.2 270.365 1073.28 275.05 1069.43 278.32C1065.63 281.545 1060.09 283.158 1052.79 283.158C1045.55 283.158 1039.76 281.148 1035.43 277.126C1031.14 273.061 1029 267.095 1029 259.23V240.073Z" fill="#FF5775"/>
<path d="M754.049 367.42C755.507 367.155 756.236 366.426 756.236 365.232C756.236 363.995 755.839 362.625 755.043 361.123C754.292 359.576 753.165 358.118 751.663 356.748C747.73 353.213 742.405 351.445 735.688 351.445C732.374 351.445 729.28 351.998 726.408 353.102C723.359 351.556 720.929 349.103 719.117 345.745C717.305 342.386 716.399 338.763 716.399 334.874C716.399 324.71 720.641 316.867 729.126 311.343C736.417 306.615 745.41 304.25 756.104 304.25C764.058 304.25 770.753 305.112 776.188 306.836C781.623 308.515 786.064 310.68 789.511 313.331C790.528 316.248 791.036 319.275 791.036 322.412C791.036 325.55 790.616 328.4 789.776 330.963C788.937 333.526 787.722 335.581 786.131 337.128C784.628 336.023 781.911 334.896 777.978 333.747C774.045 332.598 770.465 332.024 767.24 332.024C764.014 332.024 761.848 332.223 760.744 332.62C759.683 333.018 759.153 333.637 759.153 334.476C759.153 334.874 759.219 335.25 759.352 335.603C760.898 335.205 762.887 335.007 765.317 335.007C773.934 335.007 780.96 337.039 786.396 341.105C792.803 345.966 796.007 353.257 796.007 362.979C796.007 371.552 792.538 378.666 785.6 384.322C778.088 390.376 767.991 393.403 755.308 393.403C748.326 393.403 742.272 392.873 737.146 391.813C732.02 390.796 727.027 388.984 722.166 386.377C718.852 381.561 717.195 376.678 717.195 371.728C717.195 366.735 718.896 362.603 722.299 359.333C725.701 356.063 729.877 354.428 734.826 354.428C739.82 354.428 743.885 355.444 747.023 357.477C750.204 359.51 752.546 362.824 754.049 367.42Z" fill="#FF5775"/>
<path d="M833.06 331.891V358.14C833.06 364.724 834.651 369.011 837.833 370.999C837.877 371.22 837.899 371.64 837.899 372.259V373.452C837.899 379.948 836.131 384.831 832.596 388.101C829.326 391.194 824.951 392.741 819.472 392.741C814.037 392.741 809.551 391.194 806.016 388.101C801.553 384.168 799.321 378.423 799.321 370.867V327.782C800.117 327.207 800.978 326.743 801.906 326.39C802.834 326.036 803.807 325.594 804.823 325.064C802.923 324.092 801.199 322.412 799.653 320.026C798.106 317.596 797.333 314.768 797.333 311.542C797.333 305.974 799.167 301.422 802.834 297.887C806.502 294.352 810.987 292.584 816.29 292.584C821.637 292.584 826.1 294.396 829.68 298.02C833.303 301.599 835.115 306.106 835.115 311.542C835.115 315.917 833.745 319.761 831.005 323.075C828.266 326.345 824.929 328.4 820.996 329.24C820.996 330.919 821.637 331.759 822.919 331.759C825.172 331.759 827.47 330.875 829.812 329.107C831.58 330.477 832.663 331.405 833.06 331.891Z" fill="#FF5775"/>
<path d="M948.197 358.736C948.197 361.962 948.55 364.592 949.257 366.624C949.964 368.657 951.202 370.226 952.969 371.331C953.014 371.552 953.036 371.927 953.036 372.457V373.452C953.036 379.506 951.268 384.234 947.733 387.637C944.198 391.039 939.624 392.741 934.012 392.741C928.444 392.741 923.959 391.216 920.556 388.167C916.535 384.632 914.524 379.218 914.524 371.927V350.981C914.524 348.02 913.552 346.54 911.608 346.54C910.856 346.54 910.26 346.717 909.818 347.07L911.011 356.947V371.927C911.011 377.937 912.005 382.489 913.994 385.582C911.873 387.835 909.221 389.603 906.04 390.885C902.902 392.122 899.699 392.741 896.428 392.741C891.126 392.741 887.016 391.459 884.099 388.896C880.564 385.803 878.797 380.92 878.797 374.247V350.981C878.797 348.02 877.825 346.54 875.88 346.54C875.129 346.54 874.532 346.717 874.091 347.07L875.284 356.947V374.512C875.284 379.462 875.946 383.284 877.272 385.98C872.942 390.443 866.865 392.674 859.044 392.674C854.404 392.674 850.493 391.503 847.311 389.161C843.644 386.466 841.81 382.842 841.81 378.29V346.606C839.203 342.939 837.899 338.431 837.899 333.084C837.899 327.693 839.203 323.031 841.81 319.098H857.784C860.922 319.098 863.595 320.269 865.805 322.611C863.861 324.423 862.888 325.926 862.888 327.119C862.888 328.489 863.662 329.173 865.208 329.173C867.153 325.815 869.826 323.142 873.229 321.153C877.206 318.899 881.868 317.773 887.215 317.773C891.28 317.773 894.838 318.634 897.887 320.358C900.98 322.081 903.278 324.07 904.78 326.323C906.857 323.495 909.553 321.374 912.867 319.96C916.225 318.502 919.716 317.773 923.34 317.773C931.338 317.773 937.547 320.247 941.966 325.196C946.297 330.146 948.462 336.929 948.462 345.546L948.197 358.736Z" fill="#FF5775"/>
<path d="M990.553 355.754V364.636C990.862 364.945 991.37 365.1 992.077 365.1C992.784 365.1 993.293 364.857 993.602 364.371C993.911 363.885 994.066 363.045 994.066 361.852V355.091C994.066 350.849 993.889 348.043 993.536 346.673C993.182 345.259 992.519 344.552 991.547 344.552C990.928 344.552 990.398 344.773 989.956 345.214C990.354 349.589 990.553 353.102 990.553 355.754ZM969.408 327.185C969.408 328.511 970.181 329.173 971.728 329.173C974.379 325.02 977.495 321.948 981.074 319.96C984.653 317.927 988.962 316.911 994 316.911C999.037 316.911 1003.63 317.706 1007.79 319.297C1013.49 321.551 1017.99 325.174 1021.31 330.168C1025.46 336.487 1027.54 344.773 1027.54 355.025C1027.54 366.558 1024.45 375.529 1018.26 381.936C1012.12 388.299 1003.59 391.481 992.674 391.481C986.576 391.481 981.825 390.73 978.423 389.227C978.113 389.404 977.959 389.78 977.959 390.354C977.959 391.68 978.975 392.63 981.008 393.205C983.085 393.779 986.642 394.199 991.68 394.464V412.096C987.128 414.128 982.135 415.145 976.699 415.145C970.292 415.145 965.453 413.974 962.183 411.632C958.471 409.113 956.615 405.246 956.615 400.032V346.673C954.008 343.005 952.704 338.453 952.704 333.018C952.704 330.809 953.058 328.4 953.765 325.793C954.472 323.186 955.422 320.954 956.615 319.098H966.027C969.872 319.098 972.811 319.629 974.843 320.689C971.22 323.385 969.408 325.55 969.408 327.185Z" fill="#FF5775"/>
<path d="M1065.06 311.542V358.14C1065.06 364.724 1066.65 369.011 1069.83 370.999C1069.87 371.22 1069.9 371.64 1069.9 372.259V373.452C1069.9 379.771 1068.28 384.565 1065.06 387.835C1061.88 391.106 1057.35 392.741 1051.47 392.741C1045.59 392.741 1040.93 391.106 1037.48 387.835C1033.37 383.947 1031.32 378.07 1031.32 370.204V301.334C1035.96 298.506 1041.26 297.092 1047.23 297.092C1053.24 297.092 1057.7 298.373 1060.62 300.936C1063.58 303.455 1065.06 306.99 1065.06 311.542Z" fill="#FF5775"/>
<path d="M1110.59 393.602C1098.35 393.602 1088.7 390.2 1081.63 383.394C1074.38 376.545 1070.76 367.177 1070.76 355.29C1070.76 343.358 1074.49 333.902 1081.96 326.92C1088.85 320.424 1097.58 317.176 1108.14 317.176C1118.7 317.176 1127.17 320.092 1133.53 325.926C1139.94 331.714 1143.14 338.851 1143.14 347.336C1143.14 354.892 1140.51 360.592 1135.25 364.437C1130.39 368.061 1123.76 369.872 1115.37 369.872C1109.09 369.872 1103.79 368.569 1099.46 365.962C1099.11 366.227 1098.93 366.713 1098.93 367.42C1098.93 368.745 1100.67 369.961 1104.16 371.065C1107.66 372.259 1111.61 372.855 1116.03 372.855C1120.49 372.855 1124.54 372.303 1128.16 371.198C1131.83 370.049 1134.77 368.701 1136.98 367.155C1138.04 368.083 1138.88 369.806 1139.49 372.325C1140.16 374.799 1140.49 377.075 1140.49 379.152C1140.49 381.185 1140.29 382.997 1139.89 384.588C1136.45 387.504 1132.91 389.581 1129.29 390.818C1124.16 392.674 1117.93 393.602 1110.59 393.602ZM1109.73 348.727C1111.94 348.727 1113.05 347.888 1113.05 346.209C1113.05 344.618 1111.88 343.822 1109.53 343.822C1107.19 343.822 1105.84 345.082 1105.49 347.601C1106.73 348.352 1108.14 348.727 1109.73 348.727Z" fill="#FF5775"/>
<path d="M758.49 455.393C758.49 450.974 758.291 447.947 757.893 446.312C757.496 444.633 756.767 443.793 755.706 443.793C755.043 443.793 754.447 444.014 753.916 444.456C754.005 445.252 754.137 446.312 754.314 447.638C754.491 448.964 754.579 451.792 754.579 456.122V460.431C754.579 463.436 754.513 465.623 754.38 466.993C754.248 468.363 754.137 469.534 754.049 470.506C754.005 471.036 753.961 471.567 753.916 472.097C754.447 472.539 755.043 472.76 755.706 472.76C756.767 472.76 757.496 471.942 757.893 470.307C758.291 468.628 758.49 465.579 758.49 461.16V455.393ZM733.766 501.196C728.861 501.196 725.06 499.892 722.365 497.285C719.713 494.678 718.388 490.745 718.388 485.486V425.83C718.388 422.472 721.746 419.644 728.463 417.346C735.224 415.004 742.758 413.833 751.066 413.833C765.693 413.833 777.116 417.368 785.335 424.438C794.173 432.039 798.592 443.374 798.592 458.442C798.592 472.009 794.306 482.526 785.733 489.994C777.204 497.462 765.472 501.196 750.536 501.196H733.766Z" fill="#FF5775"/>
<path d="M836.242 441.473V467.722C836.242 474.306 837.833 478.593 841.014 480.581C841.059 480.802 841.081 481.222 841.081 481.841V483.034C841.081 489.53 839.313 494.413 835.778 497.683C832.508 500.776 828.133 502.323 822.654 502.323C817.218 502.323 812.733 500.776 809.198 497.683C804.735 493.75 802.503 488.005 802.503 480.449V437.364C803.298 436.789 804.16 436.325 805.088 435.972C806.016 435.618 806.988 435.176 808.005 434.646C806.104 433.674 804.381 431.995 802.834 429.608C801.288 427.178 800.514 424.35 800.514 421.124C800.514 415.556 802.348 411.005 806.016 407.469C809.684 403.934 814.169 402.167 819.472 402.167C824.819 402.167 829.282 403.978 832.861 407.602C836.485 411.181 838.297 415.689 838.297 421.124C838.297 425.499 836.927 429.343 834.187 432.658C831.447 435.928 828.111 437.982 824.178 438.822C824.178 440.501 824.819 441.341 826.1 441.341C828.354 441.341 830.652 440.457 832.994 438.689C834.762 440.059 835.844 440.987 836.242 441.473Z" fill="#FF5775"/>
<path d="M911.077 468.319C911.077 471.5 911.431 474.063 912.138 476.008C912.845 477.952 914.082 479.477 915.85 480.581C915.894 480.802 915.916 481.222 915.916 481.841V483.034C915.916 489.309 914.016 494.192 910.216 497.683C906.857 500.776 902.703 502.323 897.754 502.323C894.396 502.323 891.325 501.527 888.541 499.937C885.757 498.346 883.768 496.048 882.575 493.043C881.072 493.043 880.321 493.772 880.321 495.23C880.321 496.468 881.095 497.86 882.641 499.406C879.769 501.351 875.438 502.323 869.649 502.323C861.474 502.323 854.934 500.113 850.029 495.694C845.168 491.231 842.738 485.022 842.738 477.068C842.738 469.07 845.323 462.883 850.493 458.509C855.221 454.576 861.342 452.609 868.854 452.609C871.417 452.609 873.892 452.786 876.278 453.139C877.869 453.449 878.73 453.626 878.863 453.67C878.996 453.228 879.062 452.852 879.062 452.543C879.062 451.394 878.09 450.621 876.145 450.223C874.201 449.825 871.66 449.626 868.523 449.626C861.85 449.626 856.149 450.974 851.421 453.67C849.256 450.002 848.173 445.362 848.173 439.75C848.173 436.568 848.571 434.204 849.366 432.658C852.548 431.199 856.591 429.918 861.496 428.813C866.401 427.664 871.572 427.09 877.007 427.09C888.231 427.09 896.716 429.542 902.46 434.447C908.205 439.352 911.077 446.312 911.077 455.327V468.319ZM876.676 471.567C874.82 471.567 873.892 472.406 873.892 474.085C873.892 475.676 874.974 476.472 877.14 476.472C878.642 476.472 879.747 476.118 880.454 475.411C881.161 474.66 881.514 473.378 881.514 471.567C881.514 471.567 879.901 471.567 876.676 471.567Z" fill="#FF5775"/>
<path d="M952.373 421.124V467.722C952.373 474.306 953.964 478.593 957.145 480.581C957.189 480.802 957.212 481.222 957.212 481.841V483.034C957.212 489.353 955.599 494.148 952.373 497.418C949.191 500.688 944.662 502.323 938.784 502.323C932.907 502.323 928.245 500.688 924.798 497.418C920.689 493.529 918.634 487.652 918.634 479.786V410.916C923.274 408.088 928.577 406.674 934.542 406.674C940.552 406.674 945.015 407.955 947.932 410.518C950.892 413.037 952.373 416.572 952.373 421.124Z" fill="#FF5775"/>
<path d="M993.734 464.209V475.809C994.044 476.118 994.552 476.273 995.259 476.273C995.966 476.273 996.474 476.03 996.784 475.544C997.093 475.058 997.248 474.218 997.248 473.025V463.546C997.248 459.304 997.071 456.498 996.717 455.128C996.364 453.714 995.701 453.007 994.729 453.007C994.11 453.007 993.58 453.228 993.138 453.67C993.536 458.045 993.734 461.558 993.734 464.209ZM968.944 493.573C961.697 486.591 958.073 477.135 958.073 465.203C958.073 453.228 961.476 443.793 968.281 436.9C975.131 429.962 984.101 426.493 995.193 426.493C1006.28 426.493 1015.25 430.095 1022.1 437.297C1028.91 444.5 1032.31 453.891 1032.31 465.468C1032.31 477.002 1029.02 486.171 1022.44 492.977C1015.9 499.782 1006.99 503.184 995.723 503.184C984.455 503.184 975.528 499.981 968.944 493.573Z" fill="#FF5775"/>
<path d="M1073.21 453.603C1073.21 452.013 1072.61 451.217 1071.42 451.217C1070.32 451.217 1069.76 451.88 1069.76 453.206V460.033C1070.12 460.342 1070.65 460.497 1071.35 460.497C1072.06 460.497 1072.55 460.232 1072.81 459.702C1073.08 459.171 1073.21 458.199 1073.21 456.785V453.603ZM1075.66 480.449C1072.83 480.449 1070.43 480.25 1068.44 479.852C1068.3 480.25 1068.24 480.626 1068.24 480.979C1068.24 481.951 1068.92 482.614 1070.29 482.968C1071.71 483.277 1073.5 483.432 1075.66 483.432C1082.56 483.432 1088.43 482.415 1093.29 480.383C1098.07 481.62 1101.78 484.315 1104.43 488.469C1106.6 491.872 1107.68 495.871 1107.68 500.467C1107.68 508.642 1104.21 515.005 1097.27 519.557C1090.33 524.108 1081.38 526.384 1070.43 526.384C1059.51 526.384 1051.07 524.44 1045.11 520.551C1039.58 517.016 1036.82 512.42 1036.82 506.764C1036.82 504.599 1037.33 502.522 1038.34 500.533C1039.36 498.5 1040.53 497.108 1041.86 496.357C1044.07 498.213 1047.31 499.716 1051.6 500.864C1055.93 502.013 1060.37 502.588 1064.92 502.588C1069.48 502.588 1072.39 502.411 1073.67 502.058C1075 501.704 1075.66 501.085 1075.66 500.202C1075.66 499.76 1075.53 499.318 1075.26 498.876C1073.06 499.362 1070.29 499.605 1066.98 499.605C1058.45 499.605 1051.76 498.39 1046.89 495.959C1040.97 493.043 1038.01 488.646 1038.01 482.769C1038.01 480.471 1038.48 478.35 1039.4 476.405C1040.33 474.417 1041.7 472.937 1043.51 471.964C1041.08 470.462 1039.01 468.186 1037.28 465.137C1035.6 462.088 1034.76 458.332 1034.76 453.869C1034.76 445.384 1037.95 438.689 1044.31 433.784C1050.67 428.879 1058.94 426.427 1069.1 426.427C1074.01 426.427 1078.73 427.244 1083.29 428.879V424.239C1085.89 423.223 1089.34 422.715 1093.63 422.715C1097.96 422.715 1101.25 423.444 1103.5 424.902C1106.24 426.67 1107.61 429.785 1107.61 434.248C1107.61 436.723 1107.35 438.712 1106.82 440.214C1106.33 441.716 1105.6 443.285 1104.63 444.92C1105.78 447.837 1106.35 451.46 1106.35 455.791C1106.35 463.612 1103.57 469.689 1098 474.019C1092.48 478.306 1085.03 480.449 1075.66 480.449Z" fill="#FF5775"/>
<path d="M1146.12 449.162C1144.97 449.516 1144.4 450.201 1144.4 451.217V451.549C1144.4 451.77 1144.42 451.902 1144.47 451.946C1144.95 451.902 1145.59 451.88 1146.39 451.88H1147.98C1153.02 451.88 1157.72 452.653 1162.1 454.2C1166.52 455.703 1170.12 458.133 1172.9 461.491C1176 465.292 1177.54 470.086 1177.54 475.875C1177.54 484.89 1174.43 491.695 1168.2 496.291C1161.97 500.887 1153.64 503.184 1143.21 503.184C1132.78 503.184 1124.6 501.461 1118.68 498.014C1112.8 494.567 1109.87 489.508 1109.87 482.835C1109.87 480.36 1110.4 478.107 1111.46 476.074C1112.52 473.997 1113.71 472.539 1115.04 471.699C1117.47 473.732 1120.98 475.5 1125.57 477.002C1130.21 478.46 1135.12 479.189 1140.29 479.189C1142.37 479.189 1143.41 478.615 1143.41 477.466C1143.41 476.936 1143.34 476.494 1143.21 476.14C1142.9 476.184 1142.52 476.207 1142.08 476.207H1141.35C1131.98 476.207 1124.49 474.351 1118.88 470.639C1112.52 466.441 1109.33 460.519 1109.33 452.874C1109.33 445.23 1112.19 439.043 1117.89 434.315C1124.2 429.1 1132.89 426.493 1143.94 426.493C1149.37 426.493 1154.43 427.068 1159.11 428.216C1163.84 429.365 1167.89 430.89 1171.24 432.79C1172.08 434.602 1172.5 437.275 1172.5 440.811C1172.5 446.202 1171.02 450.333 1168.06 453.206C1165.81 451.968 1163.05 450.952 1159.78 450.157C1156.55 449.317 1153.64 448.897 1151.03 448.897C1148.42 448.897 1146.79 448.986 1146.12 449.162Z" fill="#FF5775"/>
</g>
<g filter="url(#filter1_d_13_2)">
<rect x="27.9905" y="73.6976" width="535.012" height="349.086" rx="6" transform="rotate(-6.93786 27.9905 73.6976)" fill="white"/>
<rect x="49.5237" y="109.301" width="153.674" height="32.2525" rx="3" transform="rotate(-6.93786 49.5237 109.301)" fill="#D9D9D9"/>
<rect x="55.7109" y="160.151" width="497.067" height="140.393" rx="3" transform="rotate(-6.93786 55.7109 160.151)" fill="#D9D9D9"/>
<rect x="204.531" y="346.54" width="106.243" height="26.5609" rx="3" transform="rotate(-6.93786 204.531 346.54)" fill="#579FC8"/>
<rect x="328.829" y="331.415" width="106.243" height="26.5609" rx="3" transform="rotate(-6.93786 328.829 331.415)" fill="#D9D9D9"/>
<line x1="140.996" y1="327.011" x2="510.125" y2="282.094" stroke="#DDDDDD"/>
</g>
<g filter="url(#filter2_d_13_2)">
<rect x="77.5598" y="142.508" width="535.012" height="349.086" rx="6" transform="rotate(11.8073 77.5598 142.508)" fill="white"/>
<rect x="86.509" y="183.143" width="153.674" height="32.2525" rx="3" transform="rotate(11.8073 86.509 183.143)" fill="#D9D9D9"/>
<rect x="76.0278" y="233.283" width="497.067" height="140.393" rx="3" transform="rotate(11.8073 76.0278 233.283)" fill="#D9D9D9"/>
<rect x="157.055" y="457.611" width="106.243" height="26.5609" rx="3" transform="rotate(11.8073 157.055 457.611)" fill="#579FC8"/>
<rect x="279.621" y="483.233" width="106.243" height="26.5609" rx="3" transform="rotate(11.8073 279.621 483.233)" fill="#D9D9D9"/>
<line x1="103.167" y1="418.7" x2="467.151" y2="494.788" stroke="#DDDDDD"/>
</g>
<g filter="url(#filter3_d_13_2)">
<rect x="25.2769" y="362.378" width="535.012" height="349.086" rx="6" transform="rotate(-6.53312 25.2769 362.378)" fill="white"/>
<rect x="46.5579" y="398.133" width="153.674" height="32.2525" rx="3" transform="rotate(-6.53312 46.5579 398.133)" fill="#D9D9D9"/>
<rect x="52.3865" y="449.024" width="497.067" height="140.393" rx="3" transform="rotate(-6.53312 52.3865 449.024)" fill="#D9D9D9"/>
<rect x="199.885" y="636.46" width="106.243" height="26.5609" rx="3" transform="rotate(-6.53312 199.885 636.46)" fill="#579FC8"/>
<rect x="324.288" y="622.214" width="106.243" height="26.5609" rx="3" transform="rotate(-6.53312 324.288 622.214)" fill="#D9D9D9"/>
<line x1="136.49" y1="616.483" x2="505.928" y2="574.174" stroke="#DDDDDD"/>
</g>
<defs>
<filter id="filter0_d_13_2" x="716.399" y="191.884" width="461.143" height="342.5" filterUnits="userSpaceOnUse" color-interpolation-filters="sRGB">
<feFlood flood-opacity="0" result="BackgroundImageFix"/>
<feColorMatrix in="SourceAlpha" type="matrix" values="0 0 0 0 0 0 0 0 0 0 0 0 0 0 0 0 0 0 127 0" result="hardAlpha"/>
<feOffset dy="8"/>
<feComposite in2="hardAlpha" operator="out"/>
<feColorMatrix type="matrix" values="0 0 0 0 0 0 0 0 0 0 0 0 0 0 0 0 0 0 0.25 0"/>
<feBlend mode="normal" in2="BackgroundImageFix" result="effect1_dropShadow_13_2"/>
<feBlend mode="normal" in="SourceGraphic" in2="effect1_dropShadow_13_2" result="shape"/>
</filter>
<filter id="filter1_d_13_2" x="21.6707" y="0.752197" width="585.901" height="423.795" filterUnits="userSpaceOnUse" color-interpolation-filters="sRGB">
<feFlood flood-opacity="0" result="BackgroundImageFix"/>
<feColorMatrix in="SourceAlpha" type="matrix" values="0 0 0 0 0 0 0 0 0 0 0 0 0 0 0 0 0 0 127 0" result="hardAlpha"/>
<feOffset dy="-2"/>
<feGaussianBlur stdDeviation="3.5"/>
<feComposite in2="hardAlpha" operator="out"/>
<feColorMatrix type="matrix" values="0 0 0 0 0 0 0 0 0 0 0 0 0 0 0 0 0 0 0.05 0"/>
<feBlend mode="normal" in2="BackgroundImageFix" result="effect1_dropShadow_13_2"/>
<feBlend mode="normal" in="SourceGraphic" in2="effect1_dropShadow_13_2" result="shape"/>
</filter>
<filter id="filter2_d_13_2" x="0.229004" y="134.607" width="606.923" height="462.975" filterUnits="userSpaceOnUse" color-interpolation-filters="sRGB">
<feFlood flood-opacity="0" result="BackgroundImageFix"/>
<feColorMatrix in="SourceAlpha" type="matrix" values="0 0 0 0 0 0 0 0 0 0 0 0 0 0 0 0 0 0 127 0" result="hardAlpha"/>
<feOffset dy="-2"/>
<feGaussianBlur stdDeviation="3.5"/>
<feComposite in2="hardAlpha" operator="out"/>
<feColorMatrix type="matrix" values="0 0 0 0 0 0 0 0 0 0 0 0 0 0 0 0 0 0 0.05 0"/>
<feBlend mode="normal" in2="BackgroundImageFix" result="effect1_dropShadow_13_2"/>
<feBlend mode="normal" in="SourceGraphic" in2="effect1_dropShadow_13_2" result="shape"/>
</filter>
<filter id="filter3_d_13_2" x="18.9199" y="293.148" width="583.969" height="420.405" filterUnits="userSpaceOnUse" color-interpolation-filters="sRGB">
<feFlood flood-opacity="0" result="BackgroundImageFix"/>
<feColorMatrix in="SourceAlpha" type="matrix" values="0 0 0 0 0 0 0 0 0 0 0 0 0 0 0 0 0 0 127 0" result="hardAlpha"/>
<feOffset dy="-2"/>
<feGaussianBlur stdDeviation="3.5"/>
<feComposite in2="hardAlpha" operator="out"/>
<feColorMatrix type="matrix" values="0 0 0 0 0 0 0 0 0 0 0 0 0 0 0 0 0 0 0.05 0"/>
<feBlend mode="normal" in2="BackgroundImageFix" result="effect1_dropShadow_13_2"/>
<feBlend mode="normal" in="SourceGraphic" in2="effect1_dropShadow_13_2" result="shape"/>
</filter>
</defs>
</svg>
