<svg viewBox="0 0 579 256" fill="none" xmlns="http://www.w3.org/2000/svg">
<rect x="0.812408" y="0.554626" width="577.639" height="254.748" rx="6" fill="white"/>
<path d="M285.678 80.7002C285.745 80.7503 285.936 80.7753 286.253 80.7753C286.57 80.7753 286.812 80.6502 286.979 80.4001C287.146 80.1499 287.229 79.7413 287.229 79.1743V78.2737C287.229 77.6733 287.154 77.248 287.004 76.9979C286.87 76.731 286.637 76.5976 286.303 76.5976C285.986 76.5976 285.77 76.6309 285.653 76.6977C285.67 76.781 285.678 76.9228 285.678 77.1229V80.7002ZM298.586 86.4039L302.914 90.8318C302.614 93.4335 301.788 95.4348 300.437 96.8357C299.103 98.2366 297.252 98.937 294.884 98.937C293.099 98.937 291.548 98.5118 290.231 97.6612C288.546 96.5939 287.287 94.8928 286.453 92.5579L285.553 90.1063C284.852 90.0897 283.968 89.9979 282.901 89.8312C282.768 89.9646 282.701 90.148 282.701 90.3815C282.701 90.8318 283.376 91.0986 284.727 91.182L286.153 94.7844V96.9107C284.235 98.2616 281.775 98.937 278.773 98.937C276.622 98.937 274.904 98.4951 273.62 97.6112C272.336 96.7273 271.694 95.4431 271.694 93.7587V69.9933C271.694 69.2595 272.369 68.5507 273.72 67.8669C275.071 67.1665 276.839 66.6078 279.024 66.1909C281.208 65.7572 283.393 65.5404 285.578 65.5404C290.581 65.5404 294.492 66.5661 297.31 68.6174C300.279 70.7688 301.763 73.7958 301.763 77.6983C301.763 79.9331 301.13 81.851 299.862 83.452C298.611 85.0364 297.027 86.1371 295.109 86.7542C295.109 87.2878 295.426 87.5547 296.06 87.5547C296.71 87.5547 297.552 87.1711 298.586 86.4039Z" fill="#3D3D3D"/>
<path d="M317.949 99.2623C313.329 99.2623 309.685 97.9781 307.017 95.4098C304.282 92.8248 302.914 89.2891 302.914 84.8029C302.914 80.3 304.323 76.731 307.142 74.096C309.743 71.6444 313.037 70.4186 317.023 70.4186C321.009 70.4186 324.203 71.5193 326.604 73.7207C329.023 75.9055 330.232 78.5989 330.232 81.801C330.232 84.6528 329.239 86.8042 327.255 88.2551C325.42 89.6227 322.919 90.3065 319.75 90.3065C317.382 90.3065 315.38 89.8145 313.746 88.8305C313.613 88.9306 313.546 89.114 313.546 89.3809C313.546 89.8812 314.205 90.3398 315.522 90.7568C316.84 91.207 318.332 91.4322 320 91.4322C321.685 91.4322 323.211 91.2237 324.578 90.8068C325.962 90.3732 327.071 89.8645 327.905 89.2808C328.305 89.631 328.622 90.2814 328.856 91.2321C329.106 92.166 329.231 93.0249 329.231 93.8087C329.231 94.5759 329.156 95.2597 329.006 95.8601C327.705 96.9608 326.371 97.7446 325.003 98.2116C323.069 98.912 320.717 99.2623 317.949 99.2623ZM317.624 82.3263C318.457 82.3263 318.874 82.0094 318.874 81.3757C318.874 80.7753 318.432 80.4751 317.549 80.4751C316.665 80.4751 316.156 80.9504 316.023 81.901C316.489 82.1845 317.023 82.3263 317.624 82.3263Z" fill="#3D3D3D"/>
<path d="M356.674 86.1037C356.674 87.3045 356.807 88.2718 357.074 89.0056C357.341 89.7394 357.808 90.3148 358.475 90.7317C358.492 90.8151 358.5 90.9736 358.5 91.207V91.6573C358.5 94.0255 357.783 95.8684 356.349 97.1859C355.081 98.3533 353.513 98.937 351.646 98.937C350.378 98.937 349.219 98.6369 348.168 98.0365C347.118 97.4361 346.367 96.5688 345.917 95.4348C345.35 95.4348 345.066 95.71 345.066 96.2603C345.066 96.7273 345.358 97.2526 345.942 97.8363C344.858 98.5701 343.223 98.937 341.039 98.937C337.953 98.937 335.485 98.1032 333.634 96.4354C331.799 94.751 330.882 92.4078 330.882 89.4059C330.882 86.3873 331.858 84.0524 333.809 82.4013C335.594 80.9171 337.903 80.1749 340.739 80.1749C341.706 80.1749 342.64 80.2416 343.54 80.375C344.141 80.4918 344.466 80.5585 344.516 80.5752C344.566 80.4084 344.591 80.2666 344.591 80.1499C344.591 79.7163 344.224 79.4244 343.49 79.2743C342.756 79.1242 341.798 79.0492 340.613 79.0492C338.095 79.0492 335.944 79.5578 334.159 80.5752C333.342 79.1909 332.933 77.4398 332.933 75.3218C332.933 74.121 333.084 73.2287 333.384 72.645C334.585 72.0947 336.111 71.611 337.962 71.1941C339.813 70.7605 341.764 70.5437 343.815 70.5437C348.052 70.5437 351.254 71.4693 353.422 73.3205C355.59 75.1717 356.674 77.7984 356.674 81.2006V86.1037ZM343.69 87.3295C342.99 87.3295 342.64 87.6464 342.64 88.2802C342.64 88.8805 343.048 89.1807 343.866 89.1807C344.433 89.1807 344.85 89.0473 345.116 88.7805C345.383 88.497 345.517 88.0133 345.517 87.3295C345.517 87.3295 344.908 87.3295 343.69 87.3295Z" fill="#3D3D3D"/>
<path d="M373.084 99.2623C368.748 99.2623 365.288 97.9281 362.703 95.2597C360.134 92.5746 358.85 88.9806 358.85 84.4777C358.85 79.9748 360.31 76.4141 363.228 73.7958C365.83 71.4609 369.082 70.2935 372.984 70.2935C376.453 70.2935 379.33 71.1524 381.615 72.8702C383.9 74.5713 385.042 76.8894 385.042 79.8247C385.042 81.8593 384.408 83.5187 383.141 84.8029C381.89 86.0704 380.239 86.7041 378.188 86.7041C376.52 86.7041 375.127 86.2622 374.01 85.3783C372.909 84.4777 372.259 83.3103 372.059 81.876C371.325 81.876 370.958 82.1428 370.958 82.6765C370.958 83.894 371.558 85.0114 372.759 86.0287C374.143 87.2295 375.861 87.8299 377.913 87.8299C379.981 87.8299 381.69 87.3879 383.041 86.504C383.875 87.7882 384.292 89.3475 384.292 91.182C384.292 93.3167 383.374 95.1429 381.54 96.6606C379.439 98.395 376.62 99.2623 373.084 99.2623Z" fill="#3D3D3D"/>
<path d="M388.92 82.6765H390.471C391.305 82.6765 391.721 82.4013 391.721 81.851C391.721 81.7843 391.705 81.6842 391.671 81.5508H386.068C385.701 80.3834 385.517 79.0825 385.517 77.6483C385.517 76.1973 385.626 75.0216 385.843 74.121C386.793 73.5206 388.102 72.6033 389.77 71.3692C390.237 70.2351 390.846 68.434 391.596 65.9657C391.696 65.6322 391.813 65.307 391.947 64.9901C393.247 64.6565 394.732 64.4898 396.4 64.4898C398.067 64.4898 399.71 64.6649 401.328 65.0151V71.1441H405.656C406.623 72.6117 407.106 74.3378 407.106 76.3224C407.106 77.223 406.981 78.1486 406.731 79.0992C406.481 80.0498 406.122 80.8587 405.656 81.5258H402.078V85.3032C402.078 87.4379 402.97 88.5053 404.755 88.5053H405.831C406.181 89.7728 406.356 90.8735 406.356 91.8074C406.356 94.1089 405.63 95.8767 404.18 97.1109C402.745 98.3283 400.652 98.937 397.9 98.937C395.165 98.937 392.981 98.1782 391.346 96.6606C389.729 95.1262 388.92 92.8748 388.92 89.9062V82.6765Z" fill="#3D3D3D"/>
<path d="M285.153 130.738C285.703 130.638 285.978 130.362 285.978 129.912C285.978 129.445 285.828 128.928 285.528 128.361C285.244 127.777 284.819 127.227 284.252 126.71C282.768 125.376 280.758 124.709 278.223 124.709C276.972 124.709 275.805 124.917 274.721 125.334C273.57 124.751 272.653 123.825 271.969 122.557C271.285 121.29 270.943 119.922 270.943 118.455C270.943 114.619 272.544 111.659 275.746 109.574C278.498 107.79 281.892 106.897 285.928 106.897C288.93 106.897 291.457 107.223 293.508 107.873C295.559 108.507 297.235 109.324 298.536 110.325C298.92 111.425 299.112 112.568 299.112 113.752C299.112 114.936 298.953 116.012 298.636 116.979C298.319 117.946 297.861 118.722 297.26 119.305C296.693 118.888 295.668 118.463 294.183 118.03C292.699 117.596 291.348 117.379 290.131 117.379C288.913 117.379 288.096 117.454 287.679 117.604C287.279 117.754 287.079 117.988 287.079 118.305C287.079 118.455 287.104 118.597 287.154 118.73C287.738 118.58 288.488 118.505 289.405 118.505C292.657 118.505 295.309 119.272 297.36 120.806C299.779 122.641 300.988 125.393 300.988 129.062C300.988 132.297 299.679 134.982 297.06 137.117C294.225 139.402 290.414 140.544 285.628 140.544C282.993 140.544 280.708 140.344 278.773 139.944C276.839 139.56 274.954 138.876 273.12 137.892C271.869 136.075 271.244 134.232 271.244 132.364C271.244 130.479 271.886 128.92 273.17 127.686C274.454 126.452 276.03 125.835 277.898 125.835C279.782 125.835 281.317 126.218 282.501 126.985C283.702 127.752 284.586 129.003 285.153 130.738Z" fill="#3D3D3D"/>
<path d="M314.972 117.329V127.235C314.972 129.72 315.572 131.338 316.773 132.089C316.79 132.172 316.798 132.33 316.798 132.564V133.014C316.798 135.466 316.131 137.309 314.797 138.543C313.563 139.71 311.912 140.294 309.844 140.294C307.792 140.294 306.099 139.71 304.765 138.543C303.081 137.058 302.239 134.89 302.239 132.039V115.778C302.539 115.561 302.864 115.386 303.214 115.253C303.564 115.119 303.931 114.953 304.315 114.752C303.598 114.385 302.947 113.752 302.364 112.851C301.78 111.934 301.488 110.867 301.488 109.649C301.488 107.548 302.18 105.83 303.564 104.496C304.949 103.162 306.641 102.494 308.643 102.494C310.661 102.494 312.345 103.178 313.696 104.546C315.064 105.897 315.747 107.598 315.747 109.649C315.747 111.3 315.23 112.751 314.196 114.002C313.162 115.236 311.903 116.012 310.419 116.328C310.419 116.962 310.661 117.279 311.144 117.279C311.995 117.279 312.862 116.945 313.746 116.278C314.413 116.795 314.822 117.146 314.972 117.329Z" fill="#3D3D3D"/>
<path d="M358.425 127.461C358.425 128.678 358.558 129.67 358.825 130.438C359.092 131.205 359.559 131.797 360.226 132.214C360.243 132.297 360.251 132.439 360.251 132.639V133.014C360.251 135.299 359.584 137.084 358.25 138.368C356.916 139.652 355.19 140.294 353.071 140.294C350.97 140.294 349.277 139.719 347.993 138.568C346.476 137.234 345.717 135.191 345.717 132.439V124.534C345.717 123.416 345.35 122.858 344.616 122.858C344.333 122.858 344.107 122.924 343.941 123.058L344.391 126.785V132.439C344.391 134.707 344.766 136.425 345.517 137.592C344.716 138.443 343.715 139.11 342.515 139.593C341.331 140.06 340.121 140.294 338.887 140.294C336.886 140.294 335.335 139.81 334.234 138.843C332.9 137.676 332.233 135.833 332.233 133.314V124.534C332.233 123.416 331.866 122.858 331.132 122.858C330.849 122.858 330.624 122.924 330.457 123.058L330.907 126.785V133.414C330.907 135.282 331.157 136.725 331.658 137.742C330.023 139.427 327.73 140.269 324.778 140.269C323.027 140.269 321.551 139.827 320.35 138.943C318.966 137.926 318.274 136.558 318.274 134.84V122.883C317.29 121.498 316.798 119.797 316.798 117.779C316.798 115.745 317.29 113.985 318.274 112.501H324.303C325.487 112.501 326.496 112.943 327.33 113.827C326.596 114.511 326.229 115.078 326.229 115.528C326.229 116.045 326.521 116.303 327.105 116.303C327.838 115.036 328.847 114.027 330.132 113.276C331.633 112.426 333.392 112.001 335.41 112.001C336.944 112.001 338.287 112.326 339.438 112.976C340.605 113.627 341.472 114.377 342.039 115.228C342.823 114.16 343.841 113.36 345.091 112.826C346.359 112.276 347.676 112.001 349.044 112.001C352.063 112.001 354.406 112.935 356.073 114.802C357.708 116.67 358.525 119.23 358.525 122.482L358.425 127.461Z" fill="#3D3D3D"/>
<path d="M374.41 126.335V129.687C374.527 129.804 374.719 129.862 374.986 129.862C375.253 129.862 375.444 129.77 375.561 129.587C375.678 129.404 375.736 129.087 375.736 128.636V126.085C375.736 124.484 375.669 123.425 375.536 122.908C375.403 122.374 375.152 122.107 374.786 122.107C374.552 122.107 374.352 122.191 374.185 122.357C374.335 124.008 374.41 125.334 374.41 126.335ZM366.43 115.553C366.43 116.053 366.722 116.303 367.306 116.303C368.306 114.736 369.482 113.577 370.833 112.826C372.184 112.059 373.81 111.675 375.711 111.675C377.612 111.675 379.347 111.976 380.914 112.576C383.066 113.427 384.767 114.794 386.018 116.679C387.585 119.064 388.369 122.191 388.369 126.06C388.369 130.413 387.202 133.798 384.867 136.216C382.549 138.618 379.33 139.819 375.211 139.819C372.909 139.819 371.116 139.535 369.832 138.968C369.716 139.035 369.657 139.177 369.657 139.393C369.657 139.894 370.041 140.252 370.808 140.469C371.592 140.686 372.934 140.844 374.836 140.944V147.599C373.118 148.366 371.233 148.749 369.182 148.749C366.764 148.749 364.937 148.307 363.703 147.424C362.302 146.473 361.602 145.014 361.602 143.046V122.908C360.618 121.523 360.126 119.806 360.126 117.754C360.126 116.92 360.259 116.012 360.526 115.028C360.793 114.044 361.152 113.201 361.602 112.501H365.154C366.605 112.501 367.714 112.701 368.481 113.101C367.114 114.119 366.43 114.936 366.43 115.553Z" fill="#3D3D3D"/>
<path d="M402.528 109.649V127.235C402.528 129.72 403.129 131.338 404.33 132.089C404.346 132.172 404.355 132.33 404.355 132.564V133.014C404.355 135.399 403.746 137.209 402.528 138.443C401.328 139.677 399.618 140.294 397.4 140.294C395.182 140.294 393.423 139.677 392.122 138.443C390.571 136.975 389.795 134.757 389.795 131.788V105.797C391.546 104.729 393.548 104.196 395.799 104.196C398.067 104.196 399.752 104.679 400.852 105.647C401.97 106.597 402.528 107.931 402.528 109.649Z" fill="#3D3D3D"/>
<path d="M419.715 140.619C415.095 140.619 411.451 139.335 408.783 136.767C406.047 134.182 404.68 130.646 404.68 126.16C404.68 121.657 406.089 118.088 408.908 115.453C411.509 113.001 414.803 111.775 418.789 111.775C422.775 111.775 425.969 112.876 428.37 115.078C430.788 117.262 431.998 119.956 431.998 123.158C431.998 126.01 431.005 128.161 429.021 129.612C427.186 130.98 424.684 131.663 421.516 131.663C419.148 131.663 417.146 131.171 415.512 130.187C415.378 130.287 415.312 130.471 415.312 130.738C415.312 131.238 415.971 131.697 417.288 132.114C418.606 132.564 420.098 132.789 421.766 132.789C423.45 132.789 424.976 132.581 426.344 132.164C427.728 131.73 428.837 131.221 429.671 130.638C430.071 130.988 430.388 131.638 430.622 132.589C430.872 133.523 430.997 134.382 430.997 135.166C430.997 135.933 430.922 136.617 430.772 137.217C429.471 138.318 428.137 139.101 426.769 139.568C424.835 140.269 422.483 140.619 419.715 140.619ZM419.389 123.683C420.223 123.683 420.64 123.366 420.64 122.733C420.64 122.132 420.198 121.832 419.314 121.832C418.43 121.832 417.922 122.307 417.788 123.258C418.255 123.541 418.789 123.683 419.389 123.683Z" fill="#3D3D3D"/>
<path d="M286.829 163.939C286.829 162.272 286.754 161.129 286.603 160.512C286.453 159.878 286.178 159.562 285.778 159.562C285.528 159.562 285.303 159.645 285.103 159.812C285.136 160.112 285.186 160.512 285.253 161.012C285.319 161.513 285.353 162.58 285.353 164.215V165.841C285.353 166.975 285.328 167.8 285.278 168.317C285.228 168.834 285.186 169.276 285.153 169.643C285.136 169.843 285.119 170.043 285.103 170.243C285.303 170.41 285.528 170.494 285.778 170.494C286.178 170.494 286.453 170.185 286.603 169.568C286.754 168.934 286.829 167.783 286.829 166.116V163.939ZM277.498 181.226C275.646 181.226 274.212 180.734 273.195 179.75C272.194 178.766 271.694 177.281 271.694 175.297V152.782C271.694 151.515 272.961 150.447 275.496 149.58C278.048 148.696 280.891 148.254 284.027 148.254C289.547 148.254 293.858 149.588 296.96 152.257C300.296 155.125 301.963 159.403 301.963 165.09C301.963 170.21 300.346 174.179 297.11 176.998C293.892 179.816 289.464 181.226 283.827 181.226H277.498Z" fill="#3D3D3D"/>
<path d="M316.173 158.686V168.592C316.173 171.077 316.773 172.695 317.974 173.445C317.99 173.529 317.999 173.687 317.999 173.921V174.371C317.999 176.823 317.332 178.666 315.998 179.9C314.763 181.067 313.112 181.651 311.044 181.651C308.993 181.651 307.3 181.067 305.966 179.9C304.282 178.415 303.439 176.247 303.439 173.395V157.135C303.74 156.918 304.065 156.743 304.415 156.61C304.765 156.476 305.132 156.309 305.516 156.109C304.799 155.742 304.148 155.109 303.564 154.208C302.981 153.291 302.689 152.223 302.689 151.006C302.689 148.905 303.381 147.187 304.765 145.853C306.149 144.518 307.842 143.851 309.844 143.851C311.861 143.851 313.546 144.535 314.897 145.903C316.264 147.254 316.948 148.955 316.948 151.006C316.948 152.657 316.431 154.108 315.397 155.359C314.363 156.593 313.104 157.368 311.62 157.685C311.62 158.319 311.861 158.636 312.345 158.636C313.196 158.636 314.063 158.302 314.947 157.635C315.614 158.152 316.023 158.502 316.173 158.686Z" fill="#3D3D3D"/>
<path d="M344.416 168.817C344.416 170.018 344.549 170.986 344.816 171.719C345.083 172.453 345.55 173.029 346.217 173.445C346.234 173.529 346.242 173.687 346.242 173.921V174.371C346.242 176.739 345.525 178.582 344.091 179.9C342.823 181.067 341.256 181.651 339.388 181.651C338.12 181.651 336.961 181.351 335.91 180.75C334.86 180.15 334.109 179.283 333.659 178.149C333.092 178.149 332.808 178.424 332.808 178.974C332.808 179.441 333.1 179.966 333.684 180.55C332.6 181.284 330.966 181.651 328.781 181.651C325.695 181.651 323.227 180.817 321.376 179.149C319.541 177.465 318.624 175.122 318.624 172.12C318.624 169.101 319.6 166.766 321.551 165.115C323.336 163.631 325.645 162.889 328.481 162.889C329.448 162.889 330.382 162.955 331.282 163.089C331.883 163.206 332.208 163.272 332.258 163.289C332.308 163.122 332.333 162.98 332.333 162.864C332.333 162.43 331.966 162.138 331.232 161.988C330.499 161.838 329.54 161.763 328.355 161.763C325.837 161.763 323.686 162.272 321.901 163.289C321.084 161.905 320.676 160.154 320.676 158.036C320.676 156.835 320.826 155.942 321.126 155.359C322.327 154.808 323.853 154.325 325.704 153.908C327.555 153.474 329.506 153.257 331.558 153.257C335.794 153.257 338.996 154.183 341.164 156.034C343.332 157.885 344.416 160.512 344.416 163.914V168.817ZM331.432 170.043C330.732 170.043 330.382 170.36 330.382 170.994C330.382 171.594 330.79 171.894 331.608 171.894C332.175 171.894 332.592 171.761 332.858 171.494C333.125 171.211 333.259 170.727 333.259 170.043C333.259 170.043 332.65 170.043 331.432 170.043Z" fill="#3D3D3D"/>
<path d="M360.001 151.006V168.592C360.001 171.077 360.601 172.695 361.802 173.445C361.819 173.529 361.827 173.687 361.827 173.921V174.371C361.827 176.756 361.218 178.565 360.001 179.8C358.8 181.034 357.091 181.651 354.873 181.651C352.655 181.651 350.895 181.034 349.594 179.8C348.043 178.332 347.268 176.114 347.268 173.145V147.153C349.019 146.086 351.02 145.552 353.272 145.552C355.54 145.552 357.224 146.036 358.325 147.003C359.442 147.954 360.001 149.288 360.001 151.006Z" fill="#3D3D3D"/>
<path d="M375.611 167.266V171.644C375.728 171.761 375.92 171.819 376.186 171.819C376.453 171.819 376.645 171.728 376.762 171.544C376.879 171.361 376.937 171.044 376.937 170.594V167.016C376.937 165.415 376.87 164.356 376.737 163.839C376.603 163.306 376.353 163.039 375.986 163.039C375.753 163.039 375.553 163.122 375.386 163.289C375.536 164.94 375.611 166.266 375.611 167.266ZM366.255 178.349C363.52 175.714 362.152 172.145 362.152 167.642C362.152 163.122 363.437 159.562 366.005 156.96C368.59 154.341 371.975 153.032 376.161 153.032C380.347 153.032 383.733 154.391 386.318 157.11C388.886 159.828 390.17 163.372 390.17 167.742C390.17 172.095 388.928 175.555 386.443 178.124C383.975 180.692 380.614 181.976 376.362 181.976C372.109 181.976 368.74 180.767 366.255 178.349Z" fill="#3D3D3D"/>
<path d="M405.605 163.264C405.605 162.664 405.38 162.363 404.93 162.363C404.513 162.363 404.305 162.613 404.305 163.114V165.69C404.438 165.807 404.638 165.866 404.905 165.866C405.172 165.866 405.355 165.766 405.455 165.565C405.555 165.365 405.605 164.998 405.605 164.465V163.264ZM406.531 173.395C405.464 173.395 404.555 173.32 403.804 173.17C403.754 173.32 403.729 173.462 403.729 173.596C403.729 173.962 403.988 174.213 404.505 174.346C405.038 174.463 405.714 174.521 406.531 174.521C409.133 174.521 411.351 174.138 413.185 173.37C414.987 173.837 416.387 174.855 417.388 176.422C418.205 177.707 418.614 179.216 418.614 180.95C418.614 184.036 417.305 186.437 414.686 188.155C412.068 189.873 408.691 190.732 404.555 190.732C400.435 190.732 397.25 189.998 394.999 188.53C392.914 187.196 391.872 185.462 391.872 183.327C391.872 182.51 392.063 181.726 392.447 180.975C392.831 180.208 393.272 179.683 393.773 179.399C394.607 180.1 395.832 180.667 397.45 181.1C399.085 181.534 400.761 181.751 402.478 181.751C404.196 181.751 405.297 181.684 405.781 181.551C406.281 181.417 406.531 181.184 406.531 180.85C406.531 180.684 406.481 180.517 406.381 180.35C405.547 180.533 404.505 180.625 403.254 180.625C400.035 180.625 397.509 180.166 395.674 179.249C393.439 178.149 392.322 176.489 392.322 174.271C392.322 173.404 392.497 172.603 392.847 171.869C393.197 171.119 393.714 170.56 394.398 170.193C393.481 169.626 392.697 168.767 392.047 167.617C391.413 166.466 391.096 165.048 391.096 163.364C391.096 160.162 392.297 157.635 394.698 155.784C397.1 153.933 400.219 153.007 404.054 153.007C405.906 153.007 407.69 153.316 409.408 153.933V152.182C410.392 151.798 411.693 151.606 413.31 151.606C414.945 151.606 416.187 151.882 417.038 152.432C418.072 153.099 418.589 154.275 418.589 155.959C418.589 156.893 418.489 157.644 418.289 158.211C418.105 158.778 417.83 159.37 417.463 159.987C417.897 161.087 418.114 162.455 418.114 164.089C418.114 167.041 417.063 169.334 414.962 170.969C412.877 172.587 410.067 173.395 406.531 173.395Z" fill="#3D3D3D"/>
<path d="M433.123 161.588C432.69 161.721 432.473 161.98 432.473 162.363V162.488C432.473 162.572 432.481 162.622 432.498 162.638C432.681 162.622 432.923 162.613 433.223 162.613H433.824C435.725 162.613 437.501 162.905 439.152 163.489C440.82 164.056 442.179 164.973 443.23 166.241C444.397 167.675 444.981 169.485 444.981 171.669C444.981 175.072 443.805 177.64 441.454 179.374C439.102 181.109 435.958 181.976 432.023 181.976C428.087 181.976 425.001 181.326 422.767 180.025C420.548 178.724 419.439 176.814 419.439 174.296C419.439 173.362 419.64 172.512 420.04 171.744C420.44 170.961 420.89 170.41 421.391 170.093C422.308 170.86 423.634 171.528 425.368 172.095C427.119 172.645 428.971 172.92 430.922 172.92C431.706 172.92 432.098 172.703 432.098 172.27C432.098 172.07 432.073 171.903 432.023 171.769C431.906 171.786 431.764 171.794 431.597 171.794H431.322C427.786 171.794 424.96 171.094 422.842 169.693C420.44 168.109 419.239 165.874 419.239 162.989C419.239 160.104 420.315 157.769 422.466 155.984C424.851 154.016 428.128 153.032 432.298 153.032C434.349 153.032 436.259 153.249 438.026 153.683C439.811 154.116 441.337 154.692 442.604 155.409C442.921 156.093 443.08 157.102 443.08 158.436C443.08 160.47 442.521 162.03 441.404 163.114C440.553 162.647 439.511 162.263 438.277 161.963C437.059 161.646 435.958 161.488 434.974 161.488C433.99 161.488 433.373 161.521 433.123 161.588Z" fill="#3D3D3D"/>
<g filter="url(#filter0_d_1_78)">
<g filter="url(#filter1_d_1_78)">
<rect x="138.342" y="77.5884" width="99.333" height="64.813" rx="6" transform="rotate(-6.93786 138.342 77.5884)" fill="white"/>
<rect x="142.34" y="84.1988" width="28.5318" height="5.98816" rx="2.99408" transform="rotate(-6.93786 142.34 84.1988)" fill="#D9D9D9"/>
<rect x="143.489" y="93.6397" width="92.2881" height="26.0661" rx="3" transform="rotate(-6.93786 143.489 93.6397)" fill="#D9D9D9"/>
<rect x="171.119" y="128.246" width="19.7257" height="4.93142" rx="2.46571" transform="rotate(-6.93786 171.119 128.246)" fill="#579FC8"/>
<rect x="194.197" y="125.437" width="19.7257" height="4.93142" rx="2.46571" transform="rotate(-6.93786 194.197 125.437)" fill="#D9D9D9"/>
<line x1="159.274" y1="124.216" x2="227.808" y2="115.876" stroke="#DDDDDD"/>
</g>
<g filter="url(#filter2_d_1_78)">
<rect x="147.545" y="84.8101" width="99.333" height="64.813" rx="6" transform="rotate(11.8073 147.545 84.8101)" fill="white"/>
<rect x="149.207" y="92.3546" width="28.5318" height="5.98816" rx="2.99408" transform="rotate(11.8073 149.207 92.3546)" fill="#D9D9D9"/>
<rect x="147.261" y="101.664" width="92.2881" height="26.0661" rx="3" transform="rotate(11.8073 147.261 101.664)" fill="#D9D9D9"/>
<rect x="162.305" y="143.314" width="19.7257" height="4.93142" rx="2.46571" transform="rotate(11.8073 162.305 143.314)" fill="#579FC8"/>
<rect x="185.061" y="148.071" width="19.7257" height="4.93142" rx="2.46571" transform="rotate(11.8073 185.061 148.071)" fill="#D9D9D9"/>
<line x1="152.383" y1="135.691" x2="219.962" y2="149.818" stroke="#DDDDDD"/>
</g>
<g filter="url(#filter3_d_1_78)">
<rect x="137.838" y="125.632" width="99.333" height="64.813" rx="6" transform="rotate(-6.53312 137.838 125.632)" fill="white"/>
<rect x="141.789" y="132.271" width="28.5318" height="5.98816" rx="2.99408" transform="rotate(-6.53312 141.789 132.271)" fill="#D9D9D9"/>
<rect x="142.871" y="141.72" width="92.2881" height="26.0661" rx="3" transform="rotate(-6.53312 142.871 141.72)" fill="#D9D9D9"/>
<rect x="170.257" y="176.52" width="19.7257" height="4.93143" rx="2.46571" transform="rotate(-6.53312 170.257 176.52)" fill="#579FC8"/>
<rect x="193.354" y="173.875" width="19.7257" height="4.93143" rx="2.46571" transform="rotate(-6.53312 193.354 173.875)" fill="#D9D9D9"/>
<line x1="158.44" y1="172.406" x2="227.032" y2="164.551" stroke="#DDDDDD"/>
</g>
</g>
<defs>
<filter id="filter0_d_1_78" x="135.383" y="66.2699" width="111.714" height="127.111" filterUnits="userSpaceOnUse" color-interpolation-filters="sRGB">
<feFlood flood-opacity="0" result="BackgroundImageFix"/>
<feColorMatrix in="SourceAlpha" type="matrix" values="0 0 0 0 0 0 0 0 0 0 0 0 0 0 0 0 0 0 127 0" result="hardAlpha"/>
<feOffset dx="3" dy="4"/>
<feComposite in2="hardAlpha" operator="out"/>
<feColorMatrix type="matrix" values="0 0 0 0 0 0 0 0 0 0 0 0 0 0 0 0 0 0 0.05 0"/>
<feBlend mode="normal" in2="BackgroundImageFix" result="effect1_dropShadow_1_78"/>
<feBlend mode="normal" in="SourceGraphic" in2="effect1_dropShadow_1_78" result="shape"/>
</filter>
<filter id="filter1_d_1_78" x="132.022" y="57.2699" width="119.074" height="88.9767" filterUnits="userSpaceOnUse" color-interpolation-filters="sRGB">
<feFlood flood-opacity="0" result="BackgroundImageFix"/>
<feColorMatrix in="SourceAlpha" type="matrix" values="0 0 0 0 0 0 0 0 0 0 0 0 0 0 0 0 0 0 127 0" result="hardAlpha"/>
<feOffset dy="-2"/>
<feGaussianBlur stdDeviation="3.5"/>
<feComposite in2="hardAlpha" operator="out"/>
<feColorMatrix type="matrix" values="0 0 0 0 0 0 0 0 0 0 0 0 0 0 0 0 0 0 0.05 0"/>
<feBlend mode="normal" in2="BackgroundImageFix" result="effect1_dropShadow_1_78"/>
<feBlend mode="normal" in="SourceGraphic" in2="effect1_dropShadow_1_78" result="shape"/>
</filter>
<filter id="filter2_d_1_78" x="128.383" y="76.9097" width="122.294" height="95.5682" filterUnits="userSpaceOnUse" color-interpolation-filters="sRGB">
<feFlood flood-opacity="0" result="BackgroundImageFix"/>
<feColorMatrix in="SourceAlpha" type="matrix" values="0 0 0 0 0 0 0 0 0 0 0 0 0 0 0 0 0 0 127 0" result="hardAlpha"/>
<feOffset dy="-2"/>
<feGaussianBlur stdDeviation="3.5"/>
<feComposite in2="hardAlpha" operator="out"/>
<feColorMatrix type="matrix" values="0 0 0 0 0 0 0 0 0 0 0 0 0 0 0 0 0 0 0.05 0"/>
<feBlend mode="normal" in2="BackgroundImageFix" result="effect1_dropShadow_1_78"/>
<feBlend mode="normal" in="SourceGraphic" in2="effect1_dropShadow_1_78" result="shape"/>
</filter>
<filter id="filter3_d_1_78" x="131.481" y="105.974" width="118.776" height="88.4077" filterUnits="userSpaceOnUse" color-interpolation-filters="sRGB">
<feFlood flood-opacity="0" result="BackgroundImageFix"/>
<feColorMatrix in="SourceAlpha" type="matrix" values="0 0 0 0 0 0 0 0 0 0 0 0 0 0 0 0 0 0 127 0" result="hardAlpha"/>
<feOffset dy="-2"/>
<feGaussianBlur stdDeviation="3.5"/>
<feComposite in2="hardAlpha" operator="out"/>
<feColorMatrix type="matrix" values="0 0 0 0 0 0 0 0 0 0 0 0 0 0 0 0 0 0 0.05 0"/>
<feBlend mode="normal" in2="BackgroundImageFix" result="effect1_dropShadow_1_78"/>
<feBlend mode="normal" in="SourceGraphic" in2="effect1_dropShadow_1_78" result="shape"/>
</filter>
</defs>
</svg>
